<svg xmlns="http://www.w3.org/2000/svg" width="247" height="21" viewBox="0 0 247 21">
    <g fill="#9B9B9B" fill-rule="evenodd">
        <path d="M6.137 18.993H2.046V9.499H.001V6.226h2.045V4.262c0-2.669 1.155-4.258 4.433-4.258h2.73v3.273H7.504c-1.278 0-1.362.458-1.362 1.312l-.005 1.637h3.092l-.362 3.273h-2.73v9.494zM90.008 2.896a9.062 9.062 0 0 1-2.475.635c.89-.5 1.573-1.292 1.895-2.234a9.05 9.05 0 0 1-2.738.98 4.437 4.437 0 0 0-3.145-1.276c-2.38 0-4.311 1.809-4.311 4.039 0 .317.038.626.112.921-3.582-.169-6.758-1.777-8.884-4.22a3.829 3.829 0 0 0-.583 2.031c0 1.4.761 2.638 1.917 3.362a4.527 4.527 0 0 1-1.952-.506v.052c0 1.957 1.485 3.589 3.457 3.96a4.696 4.696 0 0 1-1.946.07c.548 1.603 2.14 2.772 4.026 2.805a9.023 9.023 0 0 1-5.353 1.728c-.348 0-.691-.019-1.028-.056a12.81 12.81 0 0 0 6.607 1.815c7.928 0 12.263-6.156 12.263-11.493 0-.176-.005-.349-.013-.523a8.503 8.503 0 0 0 2.151-2.09zM168.512 20.013h-17.024c-.816 0-1.477-.579-1.477-1.293V3.282c0-.713.661-1.292 1.477-1.292h17.024c.815 0 1.476.579 1.476 1.292V18.72c0 .714-.661 1.293-1.476 1.293zm-15.039-2.969h2.942V8.907h-2.942v8.137zm1.491-12.059c-1.007 0-1.664.607-1.664 1.406 0 .78.638 1.406 1.625 1.406h.019c1.026 0 1.664-.626 1.664-1.406-.018-.799-.638-1.406-1.644-1.406zm12.059 7.394c0-2.5-1.452-3.663-3.387-3.663-1.562 0-2.26.789-2.651 1.344V8.907h-2.942c.039.764 0 8.137 0 8.137h2.942V12.5c0-.242.019-.486.097-.659.212-.486.697-.989 1.509-.989 1.065 0 1.49.746 1.49 1.84v4.352h2.942v-4.665zm-6.058-2.292l.02-.027v.027h-.02zM240.424 2c-4.935 0-7.423 3.522-7.423 6.46 0 1.778.676 3.36 2.127 3.95.238.097.451.003.52-.259.048-.181.162-.639.212-.83.07-.259.043-.35-.149-.576-.419-.491-.686-1.127-.686-2.028 0-2.613 1.964-4.952 5.114-4.952 2.789 0 4.321 1.697 4.321 3.962 0 2.982-1.325 5.498-3.293 5.498-1.086 0-1.899-.895-1.639-1.992.313-1.309.917-2.723.917-3.669 0-.846-.456-1.552-1.401-1.552-1.11 0-2.002 1.144-2.002 2.676 0 .977.331 1.637.331 1.637l-1.336 5.634c-.397 1.672-.059 3.722-.031 3.93.017.122.175.151.247.059.102-.134 1.425-1.759 1.875-3.384.127-.46.73-2.842.73-2.842.361.685 1.416 1.289 2.537 1.289 3.339 0 5.604-3.031 5.604-7.087 0-3.067-2.609-5.924-6.575-5.924z"/>
    </g>
</svg>
